<?xml version="1.0" standalone="no"?>
<!DOCTYPE svg PUBLIC "-//W3C//DTD SVG 20010904//EN"
 "http://www.w3.org/TR/2001/REC-SVG-20010904/DTD/svg10.dtd">
<svg version="1.0" xmlns="http://www.w3.org/2000/svg"
 width="52.000000pt" height="51.000000pt" viewBox="0 0 52.000000 51.000000"
 preserveAspectRatio="xMidYMid meet">
<metadata>
Created by potrace 1.10, written by Peter Selinger 2001-2011
</metadata>
<g transform="translate(0.000000,51.000000) scale(0.100000,-0.100000)"
fill="#000000" stroke="none">
<path d="M187 473 c-11 -11 -8 -93 4 -93 6 0 34 22 62 50 l52 50 -56 0 c-31 0
-59 -3 -62 -7z"/>
<path d="M298 445 c-26 -22 -39 -43 -20 -31 12 7 38 -12 29 -20 -4 -5 -23 -7
-42 -6 -18 1 -36 -2 -40 -8 -3 -5 -1 -10 5 -10 6 0 8 -5 5 -10 -3 -6 1 -18 10
-27 13 -12 16 -27 12 -56 -5 -35 -2 -43 25 -66 60 -51 58 -55 51 106 -3 81 -6
149 -7 150 0 1 -13 -9 -28 -22z m2 -164 c-8 -17 -8 -19 4 -15 11 4 13 0 9 -17
l-6 -22 -19 22 c-17 22 -17 24 0 53 19 33 31 14 12 -21z"/>
<path d="M118 437 c-62 -52 -110 -177 -77 -198 24 -15 29 -10 22 24 l-6 32 22
-24 c11 -13 21 -30 21 -36 0 -7 9 -15 20 -18 18 -5 20 0 20 37 0 35 -5 46 -30
64 -17 13 -30 29 -30 37 0 19 11 19 36 0 10 -8 22 -15 25 -15 3 0 7 27 8 60 1
33 1 60 -1 60 -2 0 -15 -10 -30 -23z"/>
<path d="M360 383 c3 -42 10 -78 15 -80 6 -1 18 11 27 27 21 36 43 40 34 6 -5
-20 -3 -23 14 -19 33 9 23 43 -29 94 -26 27 -52 49 -57 49 -5 0 -7 -34 -4 -77z"/>
<path d="M175 327 c-5 -13 -1 -25 15 -43 30 -31 35 -30 36 5 1 22 -3 27 -17
24 -11 -3 -19 2 -22 14 -4 17 -4 17 -12 0z"/>
<path d="M439 300 c-54 -16 -69 -30 -69 -62 0 -25 3 -29 12 -20 7 7 25 12 40
12 26 0 28 -2 18 -20 -6 -12 -25 -23 -41 -27 -30 -6 -31 -7 -24 -52 4 -25 10
-50 14 -54 5 -5 24 11 44 34 37 43 63 120 56 168 -5 28 -14 32 -50 21z"/>
<path d="M175 170 c5 -143 3 -140 85 -140 61 0 71 3 81 21 8 16 8 31 0 59 -15
51 -31 63 -65 50 -32 -12 -79 -3 -73 14 2 6 19 13 38 16 l34 5 -46 38 c-25 20
-48 37 -51 37 -3 0 -4 -45 -3 -100z m139 -46 c3 -9 3 -21 -1 -27 -4 -7 -8 -19
-8 -27 0 -11 -13 -16 -47 -18 -27 -2 -48 0 -48 4 0 3 14 24 31 45 32 41 63 50
73 23z"/>
<path d="M35 199 c13 -42 55 -107 80 -123 l25 -16 0 65 c0 72 -1 73 -78 90
-32 7 -34 6 -27 -16z"/>
</g>
</svg>
